<svg width="72" height="72" viewBox="0 0 72 72" fill="none" xmlns="http://www.w3.org/2000/svg">
<g filter="url(#filter0_d)">
<circle cx="36" cy="34" r="24" fill="white"/>
</g>
<path d="M36 33.1667C37.841 33.1667 39.3333 31.6743 39.3333 29.8333C39.3333 27.9924 37.841 26.5 36 26.5C34.1591 26.5 32.6667 27.9924 32.6667 29.8333C32.6667 31.6743 34.1591 33.1667 36 33.1667Z" stroke="#222222" stroke-linecap="round" stroke-linejoin="round"/>
<path d="M36.0001 36C32.7973 36 29.9141 37.1822 27.9038 39.0689L28.6092 39.7743C30.438 38.0696 33.0721 37 36.0001 37C38.9281 37 41.5622 38.0696 43.391 39.7743L44.0964 39.0689C42.0861 37.1822 39.203 36 36.0001 36Z" fill="#222222"/>
<defs>
<filter id="filter0_d" x="0" y="0" width="72" height="72" filterUnits="userSpaceOnUse" color-interpolation-filters="sRGB">
<feFlood flood-opacity="0" result="BackgroundImageFix"/>
<feColorMatrix in="SourceAlpha" type="matrix" values="0 0 0 0 0 0 0 0 0 0 0 0 0 0 0 0 0 0 127 0"/>
<feOffset dy="2"/>
<feGaussianBlur stdDeviation="6"/>
<feColorMatrix type="matrix" values="0 0 0 0 0.133333 0 0 0 0 0.133333 0 0 0 0 0.133333 0 0 0 0.2 0"/>
<feBlend mode="normal" in2="BackgroundImageFix" result="effect1_dropShadow"/>
<feBlend mode="normal" in="SourceGraphic" in2="effect1_dropShadow" result="shape"/>
</filter>
</defs>
</svg>
