<svg width="28" height="28" viewBox="0 0 28 28" fill="none" xmlns="http://www.w3.org/2000/svg">
<g filter="url(#filter0_d)">
<path d="M14.5 13.8333C14.5 14.1094 14.2761 14.3333 14 14.3333C13.7239 14.3333 13.5 14.1094 13.5 13.8333C13.5 13.5571 13.7239 13.3333 14 13.3333C14.2761 13.3333 14.5 13.5571 14.5 13.8333Z" fill="#FFCC66"/>
<path d="M14 18.3333C18.6024 18.3333 22.3333 14.6023 22.3333 9.99996C22.3333 5.39759 18.6024 1.66663 14 1.66663C9.39763 1.66663 5.66667 5.39759 5.66667 9.99996C5.66667 14.6023 9.39763 18.3333 14 18.3333Z" fill="#FFCC66"/>
<path d="M11.575 7.49996C11.7709 6.94302 12.1576 6.47338 12.6666 6.17424C13.1756 5.87509 13.7741 5.76574 14.356 5.86555C14.9379 5.96536 15.4657 6.2679 15.8459 6.71957C16.2261 7.17124 16.4342 7.74289 16.4333 8.33329C16.4333 9.99996 13.9333 10.8333 13.9333 10.8333" fill="#FFCC66"/>
<path d="M11.1033 7.33404L10.9374 7.8057L11.8807 8.13755L12.0467 7.66588L11.1033 7.33404ZM16.4333 8.33329L15.9333 8.33255V8.33329H16.4333ZM13.7752 10.359L13.3009 10.5171L13.6171 11.4657L14.0914 11.3076L13.7752 10.359ZM14 13.8333V14.8333C14.5523 14.8333 15 14.3856 15 13.8333H14ZM14 13.8333H13C13 14.3856 13.4477 14.8333 14 14.8333V13.8333ZM14 13.8333V12.8333C13.4477 12.8333 13 13.281 13 13.8333H14ZM14 13.8333H15C15 13.281 14.5523 12.8333 14 12.8333V13.8333ZM21.8333 9.99996C21.8333 14.3262 18.3262 17.8333 14 17.8333V18.8333C18.8785 18.8333 22.8333 14.8785 22.8333 9.99996H21.8333ZM14 17.8333C9.67377 17.8333 6.16667 14.3262 6.16667 9.99996H5.16667C5.16667 14.8785 9.12149 18.8333 14 18.8333V17.8333ZM6.16667 9.99996C6.16667 5.67373 9.67377 2.16663 14 2.16663V1.16663C9.12149 1.16663 5.16667 5.12144 5.16667 9.99996H6.16667ZM14 2.16663C18.3262 2.16663 21.8333 5.67373 21.8333 9.99996H22.8333C22.8333 5.12144 18.8785 1.16663 14 1.16663V2.16663ZM12.0467 7.66588C12.2034 7.22033 12.5128 6.84462 12.92 6.6053L12.4133 5.74317C11.8025 6.10214 11.3384 6.6657 11.1033 7.33404L12.0467 7.66588ZM12.92 6.6053C13.3272 6.36599 13.8059 6.27851 14.2715 6.35836L14.4405 5.37275C13.7422 5.25298 13.0241 5.3842 12.4133 5.74317L12.92 6.6053ZM14.2715 6.35836C14.737 6.4382 15.1592 6.68023 15.4634 7.04157L16.2284 6.39757C15.7722 5.85556 15.1388 5.49252 14.4405 5.37275L14.2715 6.35836ZM15.4634 7.04157C15.7676 7.4029 15.934 7.86023 15.9333 8.33255L16.9333 8.33404C16.9344 7.62556 16.6847 6.93957 16.2284 6.39757L15.4634 7.04157ZM15.9333 8.33329C15.9333 8.90119 15.5008 9.39573 14.906 9.79227C14.6238 9.98039 14.3381 10.1236 14.1209 10.2201C14.013 10.2681 13.9238 10.3037 13.8628 10.327C13.8323 10.3386 13.8089 10.3471 13.7939 10.3524C13.7864 10.3551 13.781 10.357 13.7778 10.3581C13.7762 10.3586 13.7752 10.3589 13.7748 10.3591C13.7746 10.3592 13.7745 10.3592 13.7746 10.3592C13.7746 10.3592 13.7747 10.3591 13.7748 10.3591C13.7748 10.3591 13.7749 10.359 13.775 10.359C13.7751 10.359 13.7752 10.359 13.9333 10.8333C14.0914 11.3076 14.0916 11.3076 14.0918 11.3075C14.0918 11.3075 14.092 11.3075 14.0921 11.3074C14.0924 11.3073 14.0927 11.3072 14.093 11.3071C14.0937 11.3069 14.0945 11.3066 14.0955 11.3063C14.0975 11.3056 14.1 11.3047 14.1032 11.3036C14.1095 11.3015 14.1181 11.2985 14.1289 11.2946C14.1505 11.287 14.1809 11.2759 14.2188 11.2615C14.2944 11.2327 14.4005 11.1902 14.527 11.1339C14.7786 11.0221 15.1179 10.8529 15.4607 10.6243C16.1159 10.1875 16.9333 9.43206 16.9333 8.33329H15.9333Z" fill="#222222"/>
</g>
<defs>
<filter id="filter0_d" x="0" y="0" width="28" height="28" filterUnits="userSpaceOnUse" color-interpolation-filters="sRGB">
<feFlood flood-opacity="0" result="BackgroundImageFix"/>
<feColorMatrix in="SourceAlpha" type="matrix" values="0 0 0 0 0 0 0 0 0 0 0 0 0 0 0 0 0 0 127 0"/>
<feOffset dy="4"/>
<feGaussianBlur stdDeviation="2"/>
<feColorMatrix type="matrix" values="0 0 0 0 0 0 0 0 0 0 0 0 0 0 0 0 0 0 0.25 0"/>
<feBlend mode="normal" in2="BackgroundImageFix" result="effect1_dropShadow"/>
<feBlend mode="normal" in="SourceGraphic" in2="effect1_dropShadow" result="shape"/>
</filter>
</defs>
</svg>
