<svg width="72" height="72" viewBox="0 0 72 72" fill="none" xmlns="http://www.w3.org/2000/svg">
<g filter="url(#filter0_d)">
<path d="M36 58C49.2548 58 60 47.2548 60 34C60 20.7452 49.2548 10 36 10C22.7452 10 12 20.7452 12 34C12 47.2548 22.7452 58 36 58Z" fill="white"/>
</g>
<path fill-rule="evenodd" clip-rule="evenodd" d="M37.68 20.56V32.8H46.56V29.68L50.5318 31.9641L54.3593 26.2746L46.56 20.56H42.48H42.24L40.8 17.92L37.68 20.56Z" fill="#FFCC66"/>
<path fill-rule="evenodd" clip-rule="evenodd" d="M37.68 36.4H46.56V34H37.68V36.4Z" fill="#FFCC66"/>
<path fill-rule="evenodd" clip-rule="evenodd" d="M37.68 40H46.56V37.6H37.68V40Z" fill="#FFA458"/>
<path fill-rule="evenodd" clip-rule="evenodd" d="M37.68 43.6H46.56V41.2H37.68V43.6Z" fill="#FFCC66"/>
<path fill-rule="evenodd" clip-rule="evenodd" d="M26.64 50.56H46.56V44.8H26.64V50.56Z" fill="#FFE258"/>
<path fill-rule="evenodd" clip-rule="evenodd" d="M44.5685 19.84H40.7348H40.3204L39.4399 23.5632L35.4516 20.2537H35.348L31.3598 23.5632L30.4792 19.84H30.0649H26.2314C26.0973 19.84 25.9668 19.8833 25.8595 19.9633L18.7297 25.2783C18.4641 25.4761 18.4007 25.8471 18.5857 26.1218L21.7614 30.8345C21.881 31.012 22.0772 31.1088 22.2777 31.1088C22.3852 31.1088 22.494 31.0811 22.5928 31.0227L26.1284 28.9411V50.6595C26.1284 51.0022 26.4067 51.28 26.75 51.28H34.8301H35.9696H44.0497C44.393 51.28 44.6713 51.0022 44.6713 50.6595V28.9411L48.2068 31.0227C48.3057 31.0809 48.4144 31.1088 48.5222 31.1088C48.7227 31.1088 48.9187 31.012 49.0383 30.8345L52.214 26.1218C52.399 25.8471 52.3356 25.4761 52.0702 25.2783L44.9404 19.9633C44.8329 19.8833 44.7023 19.84 44.5685 19.84ZM44.4677 20.56L51.3599 25.7346L48.4136 30.1383L45.0581 28.1485C44.9287 28.0717 44.7838 28.0333 44.6386 28.0333C44.4974 28.0333 44.356 28.0696 44.229 28.1427C43.9718 28.2905 43.8128 28.5656 43.8128 28.8637V50.32H26.987V28.8637C26.987 28.5656 26.8282 28.2905 26.5707 28.1427C26.4438 28.0696 26.3026 28.0333 26.1611 28.0333C26.016 28.0333 25.8711 28.0717 25.7416 28.1485L22.3862 30.1383L19.4399 25.7346L26.3323 20.56H29.8432L30.5703 23.6571C30.636 23.9369 30.841 24.1626 31.1123 24.2537C31.1978 24.2825 31.2861 24.2967 31.3741 24.2967C31.5642 24.2967 31.7515 24.2307 31.902 24.1049L35.3999 21.1816L38.8978 24.1049C39.0483 24.2307 39.2356 24.2967 39.4257 24.2967C39.5136 24.2967 39.602 24.2825 39.6877 24.2537C39.9588 24.1626 40.1636 23.9369 40.2294 23.6571L40.9567 20.56H44.4677Z" fill="#231F20"/>
<path d="M40.7029 20.2745L38.8408 17.171H32.0133L30.1511 20.2745" stroke="#231F20" stroke-linejoin="round"/>
<path d="M38.6346 17.3095L35.4966 20.6887M32.1863 17.3095L35.3243 20.6887L32.1863 17.3095Z" stroke="#231F20" stroke-linecap="round" stroke-linejoin="round"/>
<path fill-rule="evenodd" clip-rule="evenodd" d="M36.48 35.2C36.48 35.8626 35.9428 36.4 35.28 36.4C34.6172 36.4 34.08 35.8626 34.08 35.2C34.08 34.5372 34.6172 34 35.28 34C35.9428 34 36.48 34.5372 36.48 35.2ZM36.48 38.8C36.48 39.4626 35.9428 40 35.28 40C34.6172 40 34.08 39.4626 34.08 38.8C34.08 38.1374 34.6172 37.6 35.28 37.6C35.9428 37.6 36.48 38.1374 36.48 38.8ZM36.48 42.4C36.48 43.0626 35.9428 43.6 35.28 43.6C34.6172 43.6 34.08 43.0626 34.08 42.4C34.08 41.7374 34.6172 41.2 35.28 41.2C35.9428 41.2 36.48 41.7374 36.48 42.4Z" fill="#FFA458"/>
<path d="M36 21.04H35.04V26.8H36V21.04Z" fill="#231F20"/>
<defs>
<filter id="filter0_d" x="0" y="0" width="72" height="72" filterUnits="userSpaceOnUse" color-interpolation-filters="sRGB">
<feFlood flood-opacity="0" result="BackgroundImageFix"/>
<feColorMatrix in="SourceAlpha" type="matrix" values="0 0 0 0 0 0 0 0 0 0 0 0 0 0 0 0 0 0 127 0"/>
<feOffset dy="2"/>
<feGaussianBlur stdDeviation="6"/>
<feColorMatrix type="matrix" values="0 0 0 0 0.133333 0 0 0 0 0.133333 0 0 0 0 0.133333 0 0 0 0.2 0"/>
<feBlend mode="normal" in2="BackgroundImageFix" result="effect1_dropShadow"/>
<feBlend mode="normal" in="SourceGraphic" in2="effect1_dropShadow" result="shape"/>
</filter>
</defs>
</svg>
