<svg width="72" height="72" viewBox="0 0 72 72" fill="none" xmlns="http://www.w3.org/2000/svg">
<g filter="url(#filter0_d)">
<path d="M36 58C49.2548 58 60 47.2548 60 34C60 20.7452 49.2548 10 36 10C22.7452 10 12 20.7452 12 34C12 47.2548 22.7452 58 36 58Z" fill="white"/>
</g>
<path fill-rule="evenodd" clip-rule="evenodd" d="M42.5109 22.731C40.3644 21.9346 40.304 21.9565 39.2831 23.922C38.9622 24.5401 38.5226 25.3863 37.8706 26.4691C33.9513 32.9814 25.6337 35.2264 25.2411 35.3286C22.7374 35.3307 21.0619 35.8305 20.2616 36.815C19.7695 37.4201 19.779 38.0166 19.7999 38.2182C19.3874 38.5994 19.1856 38.9876 19.1999 39.3727C19.2184 39.8776 19.6048 40.1784 19.617 40.1873C19.7117 40.267 22.0965 42.1426 35.7715 42.5632C37.4971 42.6161 39.0724 42.6393 40.508 42.6393C50.4351 42.6393 53.685 41.5347 53.7212 41.5222L53.7998 41.427C54.1974 38.88 53.9263 37.9654 53.6291 37.6468C53.5677 37.5811 53.5071 37.5422 53.4546 37.5193C53.6181 36.8104 53.584 35.6994 53.4546 34.2393L39.7532 33.7675C39.7532 33.7675 44.2571 28.0176 47.342 24.2668C45.0251 23.6625 43.5354 23.111 42.5109 22.731Z" fill="#FFCC66"/>
<path d="M30.2152 32.3976L33.6352 35.0352M17.5182 38.5581C17.5182 38.5581 17.0849 35.8085 22.975 35.8085C22.975 35.8085 31.4507 33.5565 35.5182 26.7981C39.5857 20.0407 35.3649 22.9967 49.1555 25.6718C49.1555 25.6718 49.9644 25.7127 49.9182 26.5581C49.8708 27.4026 51.634 35.9024 51.0263 37.9663C51.0263 37.9663 52.0074 37.8734 51.3995 41.7671C51.3995 41.7671 47.2858 43.2236 33.4942 42.8014C19.7035 42.3772 17.4129 40.4536 17.4129 40.4536C17.4129 40.4536 16.3026 39.6382 17.5182 38.5581ZM36.9343 24.5249C36.9343 24.5249 38.9961 25.2792 41.1585 23.7704L36.9343 24.5249ZM17.9982 38.4919C17.9982 38.4919 38.931 41.7374 51.1182 37.8381L17.9982 38.4919ZM50.243 26.3268C50.243 26.3268 52.9922 26.3143 50.5987 30.4555L50.243 26.3268ZM35.6546 26.8668L40.3464 30.2237L35.6546 26.8668ZM34.1546 28.9347L38.5732 32.0847L34.1546 28.9347ZM32.3436 30.756L36.6005 34.0392L32.3436 30.756Z" stroke="#231F20" stroke-linecap="round" stroke-linejoin="round"/>
<g filter="url(#filter1_d)">
<circle cx="18" cy="16" r="4" fill="#FFCC66"/>
</g>
<defs>
<filter id="filter0_d" x="0" y="0" width="72" height="72" filterUnits="userSpaceOnUse" color-interpolation-filters="sRGB">
<feFlood flood-opacity="0" result="BackgroundImageFix"/>
<feColorMatrix in="SourceAlpha" type="matrix" values="0 0 0 0 0 0 0 0 0 0 0 0 0 0 0 0 0 0 127 0"/>
<feOffset dy="2"/>
<feGaussianBlur stdDeviation="6"/>
<feColorMatrix type="matrix" values="0 0 0 0 0.133333 0 0 0 0 0.133333 0 0 0 0 0.133333 0 0 0 0.2 0"/>
<feBlend mode="normal" in2="BackgroundImageFix" result="effect1_dropShadow"/>
<feBlend mode="normal" in="SourceGraphic" in2="effect1_dropShadow" result="shape"/>
</filter>
<filter id="filter1_d" x="2" y="2" width="32" height="32" filterUnits="userSpaceOnUse" color-interpolation-filters="sRGB">
<feFlood flood-opacity="0" result="BackgroundImageFix"/>
<feColorMatrix in="SourceAlpha" type="matrix" values="0 0 0 0 0 0 0 0 0 0 0 0 0 0 0 0 0 0 127 0"/>
<feOffset dy="2"/>
<feGaussianBlur stdDeviation="6"/>
<feColorMatrix type="matrix" values="0 0 0 0 0.133333 0 0 0 0 0.133333 0 0 0 0 0.133333 0 0 0 0.2 0"/>
<feBlend mode="normal" in2="BackgroundImageFix" result="effect1_dropShadow"/>
<feBlend mode="normal" in="SourceGraphic" in2="effect1_dropShadow" result="shape"/>
</filter>
</defs>
</svg>
