<svg width="28" height="28" viewBox="0 0 28 28" fill="none" xmlns="http://www.w3.org/2000/svg">
<g filter="url(#filter0_d)">
<path d="M4.83333 10C4.83333 10 8.16666 3.33337 14 3.33337C19.8333 3.33337 23.1667 10 23.1667 10C23.1667 10 19.8333 16.6667 14 16.6667C8.16666 16.6667 4.83333 10 4.83333 10Z" stroke="#222222" stroke-linecap="square"/>
<path d="M14 12.5C15.3807 12.5 16.5 11.3807 16.5 10C16.5 8.61929 15.3807 7.5 14 7.5C12.6193 7.5 11.5 8.61929 11.5 10C11.5 11.3807 12.6193 12.5 14 12.5Z" stroke="#222222" stroke-linecap="square"/>
<path d="M6 2L22 18" stroke="#222222"/>
</g>
<defs>
<filter id="filter0_d" x="0" y="0" width="28" height="28" filterUnits="userSpaceOnUse" color-interpolation-filters="sRGB">
<feFlood flood-opacity="0" result="BackgroundImageFix"/>
<feColorMatrix in="SourceAlpha" type="matrix" values="0 0 0 0 0 0 0 0 0 0 0 0 0 0 0 0 0 0 127 0"/>
<feOffset dy="4"/>
<feGaussianBlur stdDeviation="2"/>
<feColorMatrix type="matrix" values="0 0 0 0 0 0 0 0 0 0 0 0 0 0 0 0 0 0 0.25 0"/>
<feBlend mode="normal" in2="BackgroundImageFix" result="effect1_dropShadow"/>
<feBlend mode="normal" in="SourceGraphic" in2="effect1_dropShadow" result="shape"/>
</filter>
</defs>
</svg>
