<svg width="72" height="72" viewBox="0 0 72 72" fill="none" xmlns="http://www.w3.org/2000/svg">
<g filter="url(#filter0_d)">
<path d="M36 58C49.2548 58 60 47.2548 60 34C60 20.7452 49.2548 10 36 10C22.7452 10 12 20.7452 12 34C12 47.2548 22.7452 58 36 58Z" fill="white"/>
</g>
<path d="M53.6164 46.4796V34.5516H43.3204V27.1356L33.8884 31.4076V27.1356L23.5444 31.8396V46.4796H53.6164ZM28.6564 41.2716H27.3364V39.9516H28.6564V41.2716ZM28.6564 38.6796H27.3364V37.3596H28.6564V38.6796ZM31.2484 41.2716H29.9284V39.9516H31.2484V41.2716ZM31.2484 38.6796H29.9284V37.3596H31.2484V38.6796ZM33.8164 41.2716H32.4964V39.9516H33.8164V41.2716ZM33.8164 38.6796H32.4964V37.3596H33.8164V38.6796ZM47.5444 37.3596H48.8644V38.6796H47.5444V37.3596ZM47.5444 39.9516H48.8644V41.2716H47.5444V39.9516ZM46.2964 41.2716H44.9764V39.9516H46.2964V41.2716ZM46.2964 38.6796H44.9764V37.3596H46.2964V38.6796ZM49.0084 45.8316H47.4484V43.1916H49.0084V45.8316ZM51.4564 41.2716H50.1364V39.9516H51.4564V41.2716ZM51.4564 38.6796H50.1364V37.3596H51.4564V38.6796Z" fill="#FFE258"/>
<path d="M49.032 46.12V34.192H47.64V32.896H46.872V20.08H45.432V32.92H44.664V34.216H43.728V32.92H42.96V24.784H41.52V32.896H40.752V34.192H38.76V26.776L29.328 31.048V26.776L18.96 31.48V46.12H49.032Z" stroke="black" stroke-miterlimit="10"/>
<defs>
<filter id="filter0_d" x="0" y="0" width="72" height="72" filterUnits="userSpaceOnUse" color-interpolation-filters="sRGB">
<feFlood flood-opacity="0" result="BackgroundImageFix"/>
<feColorMatrix in="SourceAlpha" type="matrix" values="0 0 0 0 0 0 0 0 0 0 0 0 0 0 0 0 0 0 127 0"/>
<feOffset dy="2"/>
<feGaussianBlur stdDeviation="6"/>
<feColorMatrix type="matrix" values="0 0 0 0 0.133333 0 0 0 0 0.133333 0 0 0 0 0.133333 0 0 0 0.2 0"/>
<feBlend mode="normal" in2="BackgroundImageFix" result="effect1_dropShadow"/>
<feBlend mode="normal" in="SourceGraphic" in2="effect1_dropShadow" result="shape"/>
</filter>
</defs>
</svg>
